<?xml version="1.0" standalone="no"?><!DOCTYPE svg PUBLIC "-//W3C//DTD SVG 1.1//EN" "http://www.w3.org/Graphics/SVG/1.1/DTD/svg11.dtd"><svg class="icon" width="200px" height="200.00px" viewBox="0 0 1024 1024" version="1.1" xmlns="http://www.w3.org/2000/svg"><path fill="#ff8198" d="M832 896h-640c-23.514074 0-42.666667-19.152593-42.666667-42.666667V170.666667c0-23.514074 19.152593-42.666667 42.666667-42.666667h640c23.514074 0 42.666667 19.152593 42.666667 42.666667v682.666666c0 23.514074-19.152593 42.666667-42.666667 42.666667z m-640-725.333333v682.666666h640V170.666667h-640zM367.786667 318.103704h-52.148148c-11.757037 0-21.333333-9.576296-21.333334-21.333334s9.576296-21.333333 21.333334-21.333333h52.148148c11.757037 0 21.333333 9.576296 21.333333 21.333333s-9.576296 21.333333-21.333333 21.333334zM708.740741 318.103704h-52.148148c-11.757037 0-21.333333-9.576296-21.333334-21.333334s9.576296-21.333333 21.333334-21.333333h52.148148c11.757037 0 21.333333 9.576296 21.333333 21.333333s-9.576296 21.333333-21.333333 21.333334zM512 638.577778c-105.908148 0-192-86.091852-192-192 0-11.757037 9.576296-21.333333 21.333333-21.333334s21.333333 9.576296 21.333334 21.333334c0 82.299259 67.034074 149.333333 149.333333 149.333333S661.333333 528.877037 661.333333 446.577778c0-11.757037 9.576296-21.333333 21.333334-21.333334s21.333333 9.576296 21.333333 21.333334c0 105.908148-86.091852 192-192 192zM341.333333 467.721481c-11.757037 0-21.333333-9.576296-21.333333-21.333333V296.96c0-11.757037 9.576296-21.333333 21.333333-21.333333s21.333333 9.576296 21.333334 21.333333v149.333333c0 11.851852-9.576296 21.428148-21.333334 21.428148zM682.666667 467.721481c-11.757037 0-21.333333-9.576296-21.333334-21.333333V296.96c0-11.757037 9.576296-21.333333 21.333334-21.333333s21.333333 9.576296 21.333333 21.333333v149.333333c0 11.851852-9.576296 21.428148-21.333333 21.428148z" /></svg>