<?xml version="1.0" standalone="no"?><!DOCTYPE svg PUBLIC "-//W3C//DTD SVG 1.1//EN" "http://www.w3.org/Graphics/SVG/1.1/DTD/svg11.dtd"><svg class="icon" width="200px" height="200.00px" viewBox="0 0 1024 1024" version="1.1" xmlns="http://www.w3.org/2000/svg"><path fill="#ff8198" d="M882.688 402.432l-151.552 55.296-190.464-265.216c-8.192-10.24-20.48-17.408-32.768-17.408s-25.6 6.144-32.768 17.408L283.648 457.728 133.12 402.432c-14.336-5.12-29.696-2.048-40.96 8.192S75.776 436.224 78.848 450.56l112.64 488.448c4.096 18.432 20.48 31.744 39.936 31.744h553.984c19.456 0 35.84-13.312 39.936-31.744l112.64-488.448c3.072-14.336-2.048-29.696-13.312-39.936s-27.648-13.312-41.984-8.192z m-90.112 310.272h-69.632l30.72-175.104 87.04-31.744-48.128 206.848zM507.904 286.72l165.888 230.4-33.792 195.584H378.88l-36.864-195.584L507.904 286.72zM263.168 537.6l32.768 175.104h-72.704l-48.128-207.872 88.064 32.768z m0 350.208l-21.504-93.184h530.432l-21.504 93.184H263.168z"  /><path fill="#ff8198" d="M507.904 91.136m-37.888 0a37.888 37.888 0 1 0 75.776 0 37.888 37.888 0 1 0-75.776 0Z"  /><path fill="#ff8198" d="M952.32 343.04m-37.888 0a37.888 37.888 0 1 0 75.776 0 37.888 37.888 0 1 0-75.776 0Z"  /><path fill="#ff8198" d="M71.68 343.04m-37.888 0a37.888 37.888 0 1 0 75.776 0 37.888 37.888 0 1 0-75.776 0Z"  /></svg>