<?xml version="1.0" standalone="no"?><!DOCTYPE svg PUBLIC "-//W3C//DTD SVG 1.1//EN" "http://www.w3.org/Graphics/SVG/1.1/DTD/svg11.dtd"><svg class="icon" width="200px" height="200.00px" viewBox="0 0 1024 1024" version="1.1" xmlns="http://www.w3.org/2000/svg"><path fill="#ff8198" d="M475.8016 1008.9984L286.0032 819.2H51.2a51.2 51.2 0 0 1-51.2-51.2V51.2a51.2 51.2 0 0 1 51.2-51.2h921.6a51.2 51.2 0 0 1 51.2 51.2v716.8a51.2 51.2 0 0 1-51.2 51.2h-234.8032l-189.7984 189.7984a51.2 51.2 0 0 1-72.3968 0zM102.4 716.8h204.8a51.2 51.2 0 0 1 36.1984 15.0016L512 900.4032l168.6016-168.6016A51.2 51.2 0 0 1 716.8 716.8h204.8V102.4H102.4v614.4z m614.4-358.4H307.2a51.2 51.2 0 0 1 0-102.4h409.6a51.2 51.2 0 0 1 0 102.4z m0 204.8H307.2a51.2 51.2 0 0 1 0-102.4h409.6a51.2 51.2 0 0 1 0 102.4z"  /></svg>