<?xml version="1.0" standalone="no"?><!DOCTYPE svg PUBLIC "-//W3C//DTD SVG 1.1//EN" "http://www.w3.org/Graphics/SVG/1.1/DTD/svg11.dtd"><svg class="icon" width="200px" height="200.00px" viewBox="0 0 1024 1024" version="1.1" xmlns="http://www.w3.org/2000/svg"><path fill="#ffffff" d="M512 884.053333c-40.96 0-75.093333-34.133333-75.093333-75.093333s34.133333-75.093333 75.093333-75.093333 75.093333 34.133333 75.093333 75.093333S552.96 884.053333 512 884.053333zM512 771.413333c-20.48 0-37.546667 17.066667-37.546667 37.546667s17.066667 37.546667 37.546667 37.546667c20.48 0 37.546667-17.066667 37.546667-37.546667S532.48 771.413333 512 771.413333zM679.253333 993.28c-3.413333 0-6.826667 0-10.24-3.413333-40.96-23.893333-109.226667-23.893333-109.226667-23.893333l0 0L276.48 965.973333c-54.613333 0-98.986667-44.373333-98.986667-98.986667L177.493333 139.946667c0-54.613333 44.373333-98.986667 98.986667-98.986667l471.04 0c54.613333 0 98.986667 44.373333 98.986667 98.986667l0 727.04c0 54.613333-44.373333 98.986667-98.986667 98.986667-10.24 0-17.066667-6.826667-17.066667-17.066667s6.826667-17.066667 17.066667-17.066667c34.133333 0 61.44-27.306667 61.44-61.44L808.96 139.946667c0-34.133333-27.306667-61.44-61.44-61.44L276.48 78.506667c-34.133333 0-61.44 27.306667-61.44 61.44l0 727.04c0 34.133333 27.306667 61.44 61.44 61.44l283.306667 0c3.413333 0 78.506667 0 126.293333 30.72 10.24 6.826667 10.24 17.066667 6.826667 23.893333C692.906667 989.866667 686.08 993.28 679.253333 993.28zM590.506667 150.186667l-153.6 0c-10.24 0-17.066667-6.826667-17.066667-17.066667s6.826667-17.066667 17.066667-17.066667l153.6 0c10.24 0 17.066667 6.826667 17.066667 17.066667C607.573333 139.946667 600.746667 150.186667 590.506667 150.186667z" /></svg>