<?xml version="1.0" standalone="no"?><!DOCTYPE svg PUBLIC "-//W3C//DTD SVG 1.1//EN" "http://www.w3.org/Graphics/SVG/1.1/DTD/svg11.dtd"><svg class="icon" width="200px" height="200.00px" viewBox="0 0 1024 1024" version="1.1" xmlns="http://www.w3.org/2000/svg"><path d="M426.542817 0.599756h170.530695C710.527404-1.899228 833.477436 32.886635 911.045912 112.954095c80.167419 77.568476 114.853323 200.518508 112.454298 313.972399v170.530696c2.399025 113.453892-32.286878 236.403924-112.454298 313.972399-77.568476 80.167419-200.518508 114.853323-313.9724 112.454298H426.542817c-113.453892 2.399025-236.403924-32.286878-313.9724-112.454298C32.402998 833.961073-2.282906 711.011041 0.116119 597.557149V427.026454C-2.282906 313.472603 32.402998 190.52257 112.570417 112.954095 190.138893 32.886635 313.088925-1.899228 426.542817 0.599756z" fill="#F145E7" /><path d="M112.570417 112.954095C36.90117 186.224317 1.715469 299.878128 0.116119 407.834254c137.943939 0 249.79848-111.954501 249.798481-249.89844 0-42.782613-10.795613-83.066241-29.687935-118.251942-40.583507 17.892728-77.568476 42.182857-107.656248 73.270223z" fill="#FFFFFF" opacity=".5" /><path d="M655.849625 765.388941H367.766704c-68.971969 0-122.950032-59.375869-116.352714-128.04796l26.189357-272.689178c5.797644-59.975626 56.07721-105.65706 116.352713-105.65706h235.604249c60.175544 0 110.55507 45.781394 116.352714 105.65706l26.189356 272.689178c6.697278 68.672091-47.280785 128.047961-116.252754 128.04796z m-50.979282-384.143881c-13.294597 0-24.190169 10.795613-24.190168 24.190169 0 9.296222 5.297847 17.292972 13.094678 21.291347-5.097928 41.5831-40.483547 73.869979-83.36612 73.869978-43.782207 0-79.867541-33.68631-83.665997-76.468922 5.497766-4.398213 8.996344-11.095491 8.996343-18.692403 0-13.294597-10.795613-24.190169-24.190168-24.190169-13.294597 0-24.190169 10.795613-24.190169 24.190169 0 9.096303 5.097928 16.893135 12.494922 21.091428 4.997969 56.577007 52.578632 101.058929 110.45511 101.058929 58.876072 0 107.056492-46.181232 110.55507-104.15767 4.898009-4.398213 8.096709-10.795613 8.096709-17.892728 0.099959-13.494516-10.795613-24.290128-24.09021-24.290128z" fill="#FFFFFF" /><path d="M772.202339 636.941143l-8.296628-86.364901c-74.269816 42.582694-124.249504 122.650154-124.249505 214.412862h16.193419c68.971969 0 122.950032-59.375869 116.352714-128.047961z" fill="#F145E7" opacity=".5" /></svg>